<svg width="187" height="179" viewBox="0 0 187 179" fill="none" xmlns="http://www.w3.org/2000/svg">
<g clip-path="url(#clip0_75_1482)">
<path opacity="0.959" d="M93.1787 0.81665C95.2282 1.38094 96.6942 2.31829 97.668 3.57935C98.6581 4.86171 99.2135 6.57381 99.2559 8.79712C98.8215 16.6574 98.3959 24.5131 97.9814 32.3645C97.7475 33.9328 97.1959 35.0607 96.3945 35.8411C95.6196 36.5957 94.5272 37.106 93.0352 37.3108C90.946 36.6816 89.4254 35.6766 88.3965 34.3333C87.3465 32.9623 86.7421 31.1547 86.6504 28.8391C87.7529 20.9464 88.6623 13.0255 89.3789 5.07642C89.6077 3.41964 90.2214 2.00893 91.2148 0.81665H93.1787Z" fill="#FFF27A" stroke="#DD66AF" stroke-width="2"/>
<path opacity="0.956" d="M38.0891 12.1621C40.1146 11.939 41.9924 12.3086 43.7532 13.2715C51.1936 21.3521 58.5004 29.5408 65.6741 37.8369C66.7824 39.4835 67.1656 40.935 66.9954 42.2295C66.8271 43.5081 66.0957 44.8029 64.6331 46.1094C62.5692 47.1107 60.5528 47.1177 58.4895 46.1289C50.3513 37.4691 42.4782 28.5958 34.8694 19.5098C34.3692 17.7327 34.432 16.3061 34.9319 15.1582C35.4345 14.0044 36.4404 12.9907 38.0891 12.1621Z" fill="#FFF27A" stroke="#DD66AF" stroke-width="2"/>
<path opacity="0.954" d="M146.818 14.0781C148.293 14.4044 149.474 14.9953 150.397 15.8252C151.343 16.6747 152.066 17.8174 152.545 19.2949C152.372 19.9974 152.124 20.6712 151.802 21.3184C149.26 24.9645 146.719 28.6107 144.178 32.2568C141.629 35.9142 139.078 39.5712 136.529 43.2285C135.294 44.7461 134.01 45.5724 132.689 45.8477C131.39 46.1185 129.915 45.8848 128.222 45.0195C127.113 44.0187 126.461 42.9628 126.191 41.8545C125.921 40.743 126.011 39.4883 126.536 38.0586C131.365 30.9165 136.605 24.0826 142.258 17.5576C143.663 16.201 145.185 15.0437 146.818 14.0781Z" fill="#FFF27A" stroke="#DD66AF" stroke-width="2"/>
<path opacity="0.957" d="M14.3801 41.929C25.178 45.1366 35.7215 49.048 46.01 53.6653C47.1796 54.7432 47.8214 55.8526 48.0383 56.9895C48.2578 58.1407 48.0631 59.4365 47.3538 60.9124C46.5632 61.9665 45.686 62.6497 44.7278 63.0198C43.7625 63.3926 42.6451 63.4753 41.3401 63.219C34.7535 60.932 28.2225 58.5024 21.7473 55.9299C17.8941 54.2942 14.1977 52.3794 10.6565 50.1877C9.72953 49.3294 9.1948 48.4323 8.97974 47.4963C8.77319 46.5972 8.84449 45.5826 9.2522 44.4231C10.7758 43.1555 12.4812 42.3276 14.3801 41.929Z" fill="#FFF27A" stroke="#DD66AF" stroke-width="2"/>
<path opacity="0.99" d="M86.5024 49.595C104.36 48.3813 118.296 55.0552 128.439 69.6672C133.014 78.0825 135.036 86.2914 134.563 94.3118C134.09 102.33 131.119 110.233 125.59 118.032C119.38 125.048 112.468 129.735 104.858 132.144C97.2466 134.553 88.8733 134.704 79.7104 132.553C70.7353 129.618 63.7146 125.091 58.5962 118.999C53.48 112.911 50.217 105.203 48.8433 95.8274C48.466 85.6338 50.4782 76.9843 54.8237 69.8293C59.1706 62.6725 65.8975 56.9348 75.0747 52.6428C78.8446 51.2812 82.6537 50.2663 86.5024 49.595Z" fill="#FFF27A" stroke="#DD66AF" stroke-width="2"/>
<path opacity="0.96" d="M171.233 51.0664C173.613 51.0127 175.99 51.0664 178.365 51.2266C180.009 52.7618 180.676 54.1512 180.676 55.3975C180.676 56.683 179.965 58.1147 178.204 59.6963C176.266 60.7459 174.245 61.5907 172.139 62.2275L171.222 62.4902C164.589 64.2469 157.916 65.8306 151.204 67.2422C148.274 67.7854 146.373 67.3999 145.218 66.4297C144.085 65.4775 143.398 63.7315 143.44 60.8701C143.916 59.4164 144.758 58.2717 145.98 57.4053C154.387 55.0562 162.804 52.9427 171.233 51.0664Z" fill="#FFF27A" stroke="#DD66AF" stroke-width="2"/>
<path opacity="0.962" d="M180.428 84.082C181.73 84.1293 182.806 84.4489 183.689 85.0068C184.528 85.5362 185.24 86.3119 185.817 87.3701V91.2988C185.233 92.5526 184.469 93.4593 183.544 94.0703C182.573 94.7115 181.361 95.0712 179.857 95.1025L179.845 95.1035H179.832C168.738 95.6087 157.64 95.732 146.537 95.4746C144.507 94.3869 143.414 93.14 143.015 91.7959C142.609 90.4291 142.85 88.7294 143.987 86.6113C144.847 85.7375 145.874 85.2033 147.096 84.9971C158.214 84.9286 169.325 84.6239 180.428 84.082Z" fill="#FFF27A" stroke="#DD66AF" stroke-width="2"/>
<path opacity="0.959" d="M3.23535 89.0237C12.8348 87.9388 22.451 87.8151 32.085 88.6497C34.1725 89.5029 35.3338 90.597 35.8242 91.8401C36.3196 93.0958 36.2238 94.7393 35.2861 96.8821C34.4664 97.9814 33.4305 98.7264 32.1572 99.1399C23.8312 99.2961 15.5155 99.0514 7.20996 98.4065C5.38844 98.1972 3.5907 97.8632 1.81543 97.4075C1.50385 97.0758 1.17159 96.7737 0.817383 96.5032V89.8674C1.5475 89.4415 2.35005 89.158 3.23535 89.0237Z" fill="#FFF27A" stroke="#DD66AF" stroke-width="2"/>
<path opacity="0.958" d="M39.4033 111.991C41.6741 112.356 43.112 113.168 43.9258 114.289C44.7595 115.437 45.0833 117.11 44.6865 119.475C44.2522 120.492 43.6047 121.342 42.7314 122.035C33.9225 126.578 25.0151 130.931 16.0088 135.094C13.1384 135.238 11.3656 134.622 10.3779 133.538C9.38099 132.444 8.93476 130.6 9.37402 127.715C9.69101 126.839 10.2118 126.128 10.9502 125.561C20.3898 120.821 29.8741 116.297 39.4033 111.991Z" fill="#FFF27A" stroke="#DD66AF" stroke-width="2"/>
<path opacity="0.958" d="M146.295 115.647C149.194 116.198 151.949 117.188 154.562 118.621L154.604 118.644L154.647 118.662C159.643 120.81 164.426 123.328 168.994 126.214C170.034 127.398 170.609 128.604 170.784 129.837C170.957 131.055 170.751 132.378 170.104 133.829C167.898 135.788 165.422 136.365 162.557 135.576L162.272 135.494C159.937 134.751 157.689 133.8 155.526 132.641C151.404 130.205 147.357 127.815 143.236 125.38C141.763 123.957 141.116 122.624 141.069 121.375C141.022 120.124 141.568 118.741 142.935 117.205C143.988 116.43 145.106 115.916 146.295 115.647Z" fill="#FFF27A" stroke="#DD66AF" stroke-width="2"/>
<path opacity="0.955" d="M56.6248 135.82C59.7128 136.073 61.4836 136.978 62.3279 138.261C63.1766 139.551 63.3072 141.556 62.3113 144.528C54.7841 151.963 47.1488 159.268 39.406 166.442C37.4011 167.533 35.7449 167.792 34.3669 167.428C33.0006 167.067 31.7068 166.04 30.5281 164.136C30.1138 162.085 30.4796 160.25 31.6248 158.566C39.3998 151.544 47.0122 144.324 54.4617 136.907C55.2021 136.535 55.9304 136.169 56.6248 135.82Z" fill="#FFF27A" stroke="#DD66AF" stroke-width="2"/>
<path opacity="0.956" d="M124.969 139.446C126.356 139.275 127.547 139.436 128.573 139.888C129.618 140.349 130.556 141.141 131.377 142.318C135.537 149.288 140.376 155.738 145.89 161.671C146.51 165.118 146.039 167.184 144.944 168.284C143.84 169.393 141.751 169.872 138.25 169.246C136.208 167.91 134.445 166.273 132.959 164.327L132.658 163.923L132.655 163.918L131.877 162.857C128.042 157.591 124.453 152.152 121.111 146.543C120.751 144.679 120.936 143.238 121.534 142.132C122.136 141.02 123.233 140.104 124.969 139.446Z" fill="#FFF27A" stroke="#DD66AF" stroke-width="2"/>
<path opacity="0.96" d="M92.6655 143.99C94.0193 143.585 95.7082 143.825 97.8188 144.961C98.5392 145.701 99.0819 146.543 99.4526 147.496C99.9035 153.398 100.204 159.31 100.352 165.232C100.306 169.023 99.9787 172.78 99.3784 176.506C98.0651 176.796 96.82 177.234 95.6431 177.816H92.3989C91.5094 177.497 90.6008 177.143 89.6724 176.756C88.306 173.861 87.7808 170.798 88.103 167.544L88.1069 167.51L88.1079 167.476C88.3078 160.827 88.6079 154.184 89.0073 147.545C90.0861 145.492 91.3272 144.391 92.6655 143.99Z" fill="#FFF27A" stroke="#DD66AF" stroke-width="2"/>
</g>
<defs>
<clipPath id="clip0_75_1482">
<rect width="187" height="179" fill="white"/>
</clipPath>
</defs>
</svg>
